<svg width="720" height="430" xmlns="http://www.w3.org/2000/svg" font-family="Arial, sans-serif">
  <rect width="720" height="430" fill="#ffffff" rx="8"/>
  <text x="360" y="32" text-anchor="middle" font-size="15" font-weight="bold" fill="#1a1a2e">Sentiment by Theme — New Pickers, Stowers &amp; Packers</text>
  <text x="360" y="52" text-anchor="middle" font-size="11" fill="#666666">n = 145 records (Glassdoor reviews + YouTube transcripts)</text>
  <rect x="160" y="66" width="12" height="12" fill="#27ae60" rx="2"/>
  <text x="176" y="77" font-size="11" fill="#333333">Positive</text>
  <rect x="245" y="66" width="12" height="12" fill="#bdc3c7" rx="2"/>
  <text x="261" y="77" font-size="11" fill="#333333">Neutral</text>
  <rect x="320" y="66" width="12" height="12" fill="#e74c3c" rx="2"/>
  <text x="336" y="77" font-size="11" fill="#333333">Negative</text>
  <rect x="78" y="94" width="604" height="38" fill="#fff5f5" rx="3"/>
  <text x="74" y="118" text-anchor="end" font-size="11" font-weight="bold" fill="#c0392b">Physical Toll</text>
  <rect x="80" y="96" width="48" height="34" fill="#27ae60" rx="2 0 0 2"/>
  <rect x="128" y="96" width="300" height="34" fill="#bdc3c7"/>
  <rect x="428" y="96" width="252" height="34" fill="#e74c3c" rx="0 2 2 0"/>
  <rect x="80" y="96" width="600" height="34" fill="none" stroke="#e74c3c" stroke-width="1.5" rx="2"/>
  <text x="104" y="118" text-anchor="middle" font-size="10" fill="#ffffff" font-weight="bold">8%</text>
  <text x="278" y="118" text-anchor="middle" font-size="10" fill="#555555">50%</text>
  <text x="554" y="118" text-anchor="middle" font-size="10" fill="#ffffff" font-weight="bold">42%</text>
  <text x="686" y="113" font-size="9" fill="#e74c3c" font-weight="bold">only net</text>
  <text x="686" y="125" font-size="9" fill="#e74c3c" font-weight="bold">negative</text>
  <text x="74" y="162" text-anchor="end" font-size="11" fill="#333333">Rate Pressure</text>
  <rect x="80" y="144" width="108" height="34" fill="#27ae60" rx="2 0 0 2"/>
  <rect x="188" y="144" width="342" height="34" fill="#bdc3c7"/>
  <rect x="530" y="144" width="150" height="34" fill="#e74c3c" rx="0 2 2 0"/>
  <text x="134" y="166" text-anchor="middle" font-size="10" fill="#ffffff">18%</text>
  <text x="359" y="166" text-anchor="middle" font-size="10" fill="#555555">57%</text>
  <text x="605" y="166" text-anchor="middle" font-size="10" fill="#ffffff">25%</text>
  <text x="74" y="210" text-anchor="end" font-size="11" fill="#333333">Scheduling</text>
  <rect x="80" y="192" width="192" height="34" fill="#27ae60" rx="2 0 0 2"/>
  <rect x="272" y="192" width="336" height="34" fill="#bdc3c7"/>
  <rect x="608" y="192" width="72" height="34" fill="#e74c3c" rx="0 2 2 0"/>
  <text x="176" y="214" text-anchor="middle" font-size="10" fill="#ffffff">32%</text>
  <text x="440" y="214" text-anchor="middle" font-size="10" fill="#555555">56%</text>
  <text x="644" y="214" text-anchor="middle" font-size="10" fill="#ffffff">12%</text>
  <text x="74" y="258" text-anchor="end" font-size="11" fill="#333333">Safety</text>
  <rect x="80" y="240" width="150" height="34" fill="#27ae60" rx="2 0 0 2"/>
  <rect x="230" y="240" width="360" height="34" fill="#bdc3c7"/>
  <rect x="590" y="240" width="90" height="34" fill="#e74c3c" rx="0 2 2 0"/>
  <text x="155" y="262" text-anchor="middle" font-size="10" fill="#ffffff">25%</text>
  <text x="410" y="262" text-anchor="middle" font-size="10" fill="#555555">60%</text>
  <text x="635" y="262" text-anchor="middle" font-size="10" fill="#ffffff">15%</text>
  <text x="74" y="306" text-anchor="end" font-size="11" fill="#333333">Compensation</text>
  <rect x="80" y="288" width="270" height="34" fill="#27ae60" rx="2 0 0 2"/>
  <rect x="350" y="288" width="270" height="34" fill="#bdc3c7"/>
  <rect x="620" y="288" width="60" height="34" fill="#e74c3c" rx="0 2 2 0"/>
  <text x="215" y="310" text-anchor="middle" font-size="10" fill="#ffffff">45%</text>
  <text x="485" y="310" text-anchor="middle" font-size="10" fill="#555555">45%</text>
  <text x="650" y="310" text-anchor="middle" font-size="10" fill="#ffffff">10%</text>
  <text x="74" y="354" text-anchor="end" font-size="11" fill="#333333">Management</text>
  <rect x="80" y="336" width="228" height="34" fill="#27ae60" rx="2 0 0 2"/>
  <rect x="308" y="336" width="312" height="34" fill="#bdc3c7"/>
  <rect x="620" y="336" width="60" height="34" fill="#e74c3c" rx="0 2 2 0"/>
  <text x="194" y="358" text-anchor="middle" font-size="10" fill="#ffffff">38%</text>
  <text x="464" y="358" text-anchor="middle" font-size="10" fill="#555555">52%</text>
  <text x="650" y="358" text-anchor="middle" font-size="10" fill="#ffffff">10%</text>
  <line x1="80" y1="378" x2="680" y2="378" stroke="#dddddd" stroke-width="1"/>
  <text x="80" y="393" text-anchor="middle" font-size="9" fill="#999999">0%</text>
  <text x="230" y="393" text-anchor="middle" font-size="9" fill="#999999">25%</text>
  <text x="380" y="393" text-anchor="middle" font-size="9" fill="#999999">50%</text>
  <text x="530" y="393" text-anchor="middle" font-size="9" fill="#999999">75%</text>
  <text x="680" y="393" text-anchor="middle" font-size="9" fill="#999999">100%</text>
  <text x="360" y="420" text-anchor="middle" font-size="9" fill="#aaaaaa">Physical Toll 42% negative sentiment measured from dataset. Other theme breakdowns illustrative based on relative signal strength.</text>
</svg>
