<svg width="720" height="360" xmlns="http://www.w3.org/2000/svg" font-family="Arial, sans-serif">
  <rect width="720" height="360" fill="#ffffff" rx="8"/>
  <text x="360" y="30" text-anchor="middle" font-size="15" font-weight="bold" fill="#1a1a2e">60-Day Tiered Conditioning Ramp — Mid Shift (12pm–8pm)</text>
  <text x="360" y="50" text-anchor="middle" font-size="11" fill="#666666">Graduated UPH targets matched to physical readiness · Pilot: Pickers &amp; Stowers · One pick-tower zone</text>
  <rect x="60" y="80" width="200" height="160" fill="#fef9e7"/>
  <rect x="260" y="80" width="220" height="160" fill="#eafaf1"/>
  <rect x="480" y="80" width="180" height="160" fill="#eaf4fb"/>
  <line x1="260" y1="80" x2="260" y2="240" stroke="#cccccc" stroke-width="1" stroke-dasharray="4,3"/>
  <line x1="480" y1="80" x2="480" y2="240" stroke="#cccccc" stroke-width="1" stroke-dasharray="4,3"/>
  <text x="160" y="98" text-anchor="middle" font-size="12" font-weight="bold" fill="#e67e22">Phase 1</text>
  <text x="160" y="113" text-anchor="middle" font-size="10" fill="#e67e22">Days 1–14</text>
  <text x="370" y="98" text-anchor="middle" font-size="12" font-weight="bold" fill="#27ae60">Phase 2</text>
  <text x="370" y="113" text-anchor="middle" font-size="10" fill="#27ae60">Days 15–35</text>
  <text x="570" y="98" text-anchor="middle" font-size="12" font-weight="bold" fill="#2980b9">Phase 3</text>
  <text x="570" y="113" text-anchor="middle" font-size="10" fill="#2980b9">Days 36–60</text>
  <line x1="60" y1="80" x2="60" y2="245" stroke="#cccccc" stroke-width="1.5"/>
  <line x1="55" y1="240" x2="60" y2="240" stroke="#999" stroke-width="1"/>
  <text x="50" y="244" text-anchor="end" font-size="9" fill="#888">50%</text>
  <line x1="55" y1="208" x2="60" y2="208" stroke="#999" stroke-width="1"/>
  <text x="50" y="212" text-anchor="end" font-size="9" fill="#888">60%</text>
  <line x1="55" y1="176" x2="60" y2="176" stroke="#999" stroke-width="1"/>
  <text x="50" y="180" text-anchor="end" font-size="9" fill="#888">70%</text>
  <line x1="55" y1="128" x2="60" y2="128" stroke="#999" stroke-width="1"/>
  <text x="50" y="132" text-anchor="end" font-size="9" fill="#888">85%</text>
  <line x1="55" y1="80" x2="60" y2="80" stroke="#999" stroke-width="1"/>
  <text x="50" y="84" text-anchor="end" font-size="9" fill="#888">100%</text>
  <text x="22" y="165" text-anchor="middle" font-size="10" fill="#555555" transform="rotate(-90 22 165)">UPH Target</text>
  <line x1="60" y1="240" x2="665" y2="240" stroke="#cccccc" stroke-width="1.5"/>
  <text x="60" y="256" text-anchor="middle" font-size="9" fill="#888">Day 1</text>
  <text x="260" y="256" text-anchor="middle" font-size="9" fill="#888">Day 14</text>
  <text x="480" y="256" text-anchor="middle" font-size="9" fill="#888">Day 35</text>
  <text x="660" y="256" text-anchor="middle" font-size="9" fill="#888">Day 60</text>
  <text x="360" y="272" text-anchor="middle" font-size="10" fill="#555555">Day of Ramp</text>
  <polyline points="60,208 260,176 480,128 660,80" fill="none" stroke="#2c3e50" stroke-width="3" stroke-linejoin="round"/>
  <polygon points="60,208 260,176 480,128 660,80 660,240 60,240" fill="#2c3e50" opacity="0.06"/>
  <circle cx="60" cy="208" r="5" fill="#e67e22" stroke="#ffffff" stroke-width="2"/>
  <circle cx="260" cy="176" r="5" fill="#e67e22" stroke="#ffffff" stroke-width="2"/>
  <circle cx="260" cy="160" r="5" fill="#27ae60" stroke="#ffffff" stroke-width="2"/>
  <circle cx="480" cy="128" r="5" fill="#27ae60" stroke="#ffffff" stroke-width="2"/>
  <circle cx="480" cy="112" r="5" fill="#2980b9" stroke="#ffffff" stroke-width="2"/>
  <circle cx="660" cy="80" r="5" fill="#2980b9" stroke="#ffffff" stroke-width="2"/>
  <text x="85" y="204" font-size="10" fill="#e67e22" font-weight="bold">60%</text>
  <text x="230" y="172" font-size="10" fill="#e67e22" font-weight="bold">70%</text>
  <text x="266" y="158" font-size="10" fill="#27ae60" font-weight="bold">75%</text>
  <text x="450" y="124" font-size="10" fill="#27ae60" font-weight="bold">85%</text>
  <text x="486" y="110" font-size="10" fill="#2980b9" font-weight="bold">90%</text>
  <text x="630" y="76" font-size="10" fill="#2980b9" font-weight="bold">100%</text>
  <rect x="70" y="290" width="178" height="52" fill="#fef9e7" rx="4" stroke="#e67e22" stroke-width="1"/>
  <text x="159" y="306" text-anchor="middle" font-size="10" font-weight="bold" fill="#e67e22">Phase 1 · Days 1–14</text>
  <text x="159" y="320" text-anchor="middle" font-size="9" fill="#555">60–70% UPH · Stow/pick rotation</text>
  <text x="159" y="333" text-anchor="middle" font-size="9" fill="#555">Paired Ambassador coaching</text>
  <rect x="270" y="290" width="178" height="52" fill="#eafaf1" rx="4" stroke="#27ae60" stroke-width="1"/>
  <text x="359" y="306" text-anchor="middle" font-size="10" font-weight="bold" fill="#27ae60">Phase 2 · Days 15–35</text>
  <text x="359" y="320" text-anchor="middle" font-size="9" fill="#555">75–85% UPH · Readiness</text>
  <text x="359" y="333" text-anchor="middle" font-size="9" fill="#555">checkpoint at end of phase</text>
  <rect x="470" y="290" width="178" height="52" fill="#eaf4fb" rx="4" stroke="#2980b9" stroke-width="1"/>
  <text x="559" y="306" text-anchor="middle" font-size="10" font-weight="bold" fill="#2980b9">Phase 3 · Days 36–60</text>
  <text x="559" y="320" text-anchor="middle" font-size="9" fill="#555">90–100% UPH · Full-rate</text>
  <text x="559" y="333" text-anchor="middle" font-size="9" fill="#555">certification &amp; shift eligibility</text>
</svg>
